<mxfile host="65bd71144e">
    <diagram id="c93DB1kAbtugnkpUDjl0" name="Page-1">
        <mxGraphModel dx="439" dy="322" grid="1" gridSize="10" guides="1" tooltips="1" connect="1" arrows="1" fold="1" page="1" pageScale="1" pageWidth="850" pageHeight="1100" math="0" shadow="0">
            <root>
                <mxCell id="0"/>
                <mxCell id="1" parent="0"/>
                <mxCell id="3" value="InstDecodeur" style="rounded=0;whiteSpace=wrap;html=1;fontStyle=1;fontSize=13;" vertex="1" parent="1">
                    <mxGeometry x="110" y="120" width="240" height="150" as="geometry"/>
                </mxCell>
                <mxCell id="15" value="" style="edgeStyle=none;html=1;fontSize=13;" edge="1" parent="1" source="4" target="14">
                    <mxGeometry relative="1" as="geometry"/>
                </mxCell>
                <mxCell id="4" value="W" style="text;html=1;strokeColor=none;fillColor=none;align=center;verticalAlign=middle;whiteSpace=wrap;rounded=0;fontSize=13;" vertex="1" parent="1">
                    <mxGeometry x="120" y="240" width="30" height="30" as="geometry"/>
                </mxCell>
                <mxCell id="5" value="IN" style="text;html=1;strokeColor=none;fillColor=none;align=center;verticalAlign=middle;whiteSpace=wrap;rounded=0;fontSize=13;" vertex="1" parent="1">
                    <mxGeometry x="200" y="120" width="60" height="30" as="geometry"/>
                </mxCell>
                <mxCell id="17" value="" style="edgeStyle=none;html=1;fontSize=13;" edge="1" parent="1" source="6" target="16">
                    <mxGeometry relative="1" as="geometry"/>
                </mxCell>
                <mxCell id="6" value="ci" style="text;html=1;strokeColor=none;fillColor=none;align=center;verticalAlign=middle;whiteSpace=wrap;rounded=0;fontSize=13;" vertex="1" parent="1">
                    <mxGeometry x="180" y="240" width="30" height="30" as="geometry"/>
                </mxCell>
                <mxCell id="18" value="" style="edgeStyle=none;html=1;fontSize=13;" edge="1" parent="1" source="7" target="16">
                    <mxGeometry relative="1" as="geometry"/>
                </mxCell>
                <mxCell id="7" value="sm" style="text;html=1;strokeColor=none;fillColor=none;align=center;verticalAlign=middle;whiteSpace=wrap;rounded=0;fontSize=13;" vertex="1" parent="1">
                    <mxGeometry x="210" y="240" width="30" height="30" as="geometry"/>
                </mxCell>
                <mxCell id="19" value="" style="edgeStyle=none;html=1;fontSize=13;" edge="1" parent="1" source="9" target="16">
                    <mxGeometry relative="1" as="geometry"/>
                </mxCell>
                <mxCell id="9" value="opc" style="text;html=1;strokeColor=none;fillColor=none;align=center;verticalAlign=middle;whiteSpace=wrap;rounded=0;fontSize=13;" vertex="1" parent="1">
                    <mxGeometry x="240" y="240" width="30" height="30" as="geometry"/>
                </mxCell>
                <mxCell id="20" value="" style="edgeStyle=none;html=1;fontSize=13;" edge="1" parent="1" source="10" target="16">
                    <mxGeometry relative="1" as="geometry"/>
                </mxCell>
                <mxCell id="10" value="dst" style="text;html=1;strokeColor=none;fillColor=none;align=center;verticalAlign=middle;whiteSpace=wrap;rounded=0;fontSize=13;" vertex="1" parent="1">
                    <mxGeometry x="270" y="240" width="30" height="30" as="geometry"/>
                </mxCell>
                <mxCell id="21" value="" style="edgeStyle=none;html=1;fontSize=13;" edge="1" parent="1" source="11" target="16">
                    <mxGeometry relative="1" as="geometry"/>
                </mxCell>
                <mxCell id="11" value="cnd" style="text;html=1;strokeColor=none;fillColor=none;align=center;verticalAlign=middle;whiteSpace=wrap;rounded=0;fontSize=13;" vertex="1" parent="1">
                    <mxGeometry x="300" y="240" width="30" height="30" as="geometry"/>
                </mxCell>
                <mxCell id="13" value="" style="edgeStyle=none;html=1;fontSize=13;" edge="1" parent="1" source="12" target="5">
                    <mxGeometry relative="1" as="geometry"/>
                </mxCell>
                <mxCell id="12" value="Data or Instruction" style="text;html=1;strokeColor=none;fillColor=none;align=center;verticalAlign=middle;whiteSpace=wrap;rounded=0;fontSize=13;" vertex="1" parent="1">
                    <mxGeometry x="170" y="30" width="120" height="30" as="geometry"/>
                </mxCell>
                <mxCell id="14" value="Data passthrough" style="text;html=1;strokeColor=none;fillColor=none;align=center;verticalAlign=middle;whiteSpace=wrap;rounded=0;fontSize=13;" vertex="1" parent="1">
                    <mxGeometry x="92.5" y="330" width="85" height="40" as="geometry"/>
                </mxCell>
                <mxCell id="16" value="Instruction&amp;nbsp; breakdown" style="text;html=1;strokeColor=none;fillColor=none;align=center;verticalAlign=middle;whiteSpace=wrap;rounded=0;fontSize=13;" vertex="1" parent="1">
                    <mxGeometry x="185" y="330" width="140" height="30" as="geometry"/>
                </mxCell>
            </root>
        </mxGraphModel>
    </diagram>
</mxfile>